<svg xmlns="http://www.w3.org/2000/svg" viewBox="0 0 1366 641" preserveAspectRatio="xMidYMid" width="1366" height="641" xmlns:xlink="http://www.w3.org/1999/xlink" style="shape-rendering:auto;display:block;background-position-x:0%;background-position-y:0%;background-size:auto;background-origin:padding-box;background-clip:border-box;background:scroll rgb(255, 255, 255) none  repeat;width:1366px;height:641px;;animation:none"><g><g opacity="0.4" transform="matrix(100,0,0,100,1567.09375,-321.83172607421875)" style="transform:matrix(100, 0, 0, 100, 1567.09, -321.832);opacity:0.4;;animation:none"><path stroke-width="0" fill="#0055ff" d="M10.709439999999999 0 C10.709439999999999 2.1855999999999995 10.74600412480747 3.68049487748873 9.653204124807472 5.573279999999999 S7.247505122511269 8.181847100305216 5.35472 9.274647100305216 S2.1856000000000004 11.14656 6.82529951275196e-16 11.14656 S-3.461934877488728 10.367447100305217 -5.354719999999997 9.274647100305218 S-8.56040412480747 7.466065122511272 -9.65320412480747 5.573280000000003 S-10.709439999999999 2.185600000000001 -10.709439999999999 1.311528141666063e-15 S-10.746004124807472 -3.680494877488728 -9.653204124807473 -5.573279999999997 S-7.2475051225112725 -8.181847100305214 -5.354720000000004 -9.274647100305215 S-2.1856000000000018 -11.14656 -2.047589853825588e-15 -11.14656 S3.461934877488723 -10.36744710030522 5.354719999999992 -9.274647100305222 S8.560404124807468 -7.466065122511273 9.653204124807468 -5.573280000000005 S10.709439999999999 -2.185600000000002 10.709439999999999 -2.623056283332126e-15" transform="matrix(1,0,0,1,0,0)" style="fill:rgb(0, 85, 255);transform:matrix(1, 0, 0, 1, 0, 0);;animation:none"></path></g>
<g opacity="0.4" transform="matrix(100,0,0,100,1743.9124755859375,-450.2980651855469)" style="transform:matrix(100, 0, 0, 100, 1743.91, -450.298);opacity:0.4;;animation:none"><path stroke-width="0" fill="#0046ff" d="M12.851327999999999 0 C12.851327999999999 2.622719999999999 12.895204949768964 4.416593852986476 11.583844949768965 6.687935999999998 S8.697006147013523 9.81821652036626 6.425664000000001 11.12957652036626 S2.6227199999999997 13.375871999999998 8.190359415302352e-16 13.375871999999998 S-4.154321852986475 12.440936520366261 -6.425663999999997 11.129576520366262 S-10.272484949768963 8.959278147013524 -11.583844949768963 6.687936000000003 S-12.851327999999999 2.6227200000000006 -12.851327999999999 1.5738337699992755e-15 S-12.895204949768965 -4.416593852986473 -11.583844949768967 -6.687935999999995 S-8.697006147013525 -9.818216520366256 -6.425664000000005 -11.129576520366257 S-2.6227200000000015 -13.375871999999998 -2.4571078245907052e-15 -13.375871999999998 S4.154321852986468 -12.440936520366263 6.4256639999999905 -11.129576520366266 S10.27248494976896 -8.959278147013526 11.583844949768961 -6.687936000000005 S12.851327999999999 -2.622720000000002 12.851327999999999 -3.147667539998551e-15" transform="matrix(1,0,0,1,0,0)" style="fill:rgb(0, 70, 255);transform:matrix(1, 0, 0, 1, 0, 0);;animation:none"></path></g>
<g opacity="0.4" transform="matrix(100,0,0,100,2168.277587890625,-758.6173095703125)" style="transform:matrix(100, 0, 0, 100, 2168.28, -758.617);opacity:0.4;;animation:none"><path stroke-width="0" fill="#0033ff" d="M17.991859199999997 0 C17.991859199999997 3.6718079999999986 18.053286929676553 6.183231394181066 16.217382929676553 9.363110399999997 S12.175808605818931 13.745503128512764 8.9959296 15.581407128512764 S3.671808 18.726220799999997 1.1466503181423292e-15 18.726220799999997 S-5.816050594181064 17.417311128512765 -8.995929599999995 15.581407128512765 S-14.381478929676545 12.542989405818936 -16.217382929676546 9.363110400000005 S-17.991859199999997 3.671808000000001 -17.991859199999997 2.2033672779989855e-15 S-18.053286929676553 -6.183231394181061 -16.217382929676553 -9.363110399999993 S-12.175808605818936 -13.745503128512759 -8.995929600000006 -15.58140712851276 S-3.671808000000002 -18.726220799999997 -3.4399509544269873e-15 -18.726220799999997 S5.816050594181053 -17.417311128512768 8.995929599999986 -15.581407128512772 S14.381478929676545 -12.542989405818936 16.217382929676546 -9.363110400000007 S17.991859199999997 -3.671808000000003 17.991859199999997 -4.406734555997971e-15" transform="matrix(1,0,0,1,0,0)" style="fill:rgb(0, 51, 255);transform:matrix(1, 0, 0, 1, 0, 0);;animation:none"></path></g>
<g></g></g><!-- [ldio] generated by https://loading.io --></svg>